<svg xmlns="http://www.w3.org/2000/svg" width="512" height="512" viewBox="0 0 512 512">
<g>
<path d="M 512.00 68.00 L 512.00 512.00 L 70.00 512.00 C116.00,512.00 140.00,511.66 140.00,511.00 C140.00,510.45 138.54,509.97 136.75,509.93 C134.03,509.87 133.82,509.72 135.50,509.00 C137.34,508.21 137.30,508.13 135.00,508.05 C133.01,507.99 132.81,507.77 134.00,507.00 C135.12,506.28 134.61,506.04 132.00,506.09 C129.30,506.13 128.95,506.32 130.47,506.91 C131.72,507.40 130.34,507.65 126.71,507.59 C122.45,507.52 121.12,507.17 121.48,506.20 C121.76,505.48 121.57,505.15 121.07,505.45 C120.58,505.76 119.98,505.67 119.75,505.26 C119.52,504.84 119.45,505.02 119.59,505.65 C119.74,506.28 118.52,506.99 116.89,507.23 C114.77,507.54 114.05,507.30 114.40,506.40 C114.67,505.70 114.35,504.91 113.69,504.64 C112.49,504.15 116.59,503.79 123.00,503.81 C125.25,503.82 125.70,503.65 124.25,503.34 C123.01,503.08 121.52,501.98 120.95,500.90 C120.37,499.83 119.47,499.21 118.95,499.53 C117.93,500.16 115.33,495.34 116.21,494.45 C116.51,494.16 118.50,493.67 120.63,493.37 C123.57,492.96 124.14,493.10 123.00,493.92 C121.72,494.84 121.71,495.13 122.91,495.91 C124.79,497.12 127.25,496.09 126.59,494.37 C126.30,493.62 126.50,493.00 127.03,493.00 C127.56,493.00 128.00,491.88 128.00,490.50 C128.00,488.43 128.48,488.00 130.80,488.00 C134.35,488.00 136.00,486.35 136.00,482.80 C136.00,480.40 136.40,480.00 138.80,480.00 C142.35,480.00 144.00,478.35 144.00,474.80 C144.00,472.40 144.40,472.00 146.80,472.00 C150.35,472.00 152.00,470.35 152.00,466.80 C152.00,464.40 152.40,464.00 154.80,464.00 C158.35,464.00 160.00,462.35 160.00,458.80 C160.00,456.40 160.40,456.00 162.80,456.00 C166.35,456.00 168.00,454.35 168.00,450.80 C168.00,448.40 168.40,448.00 170.80,448.00 C174.35,448.00 176.00,446.35 176.00,442.80 C176.00,440.38 176.39,440.00 178.88,440.00 C182.62,440.00 184.35,437.86 183.55,434.21 C182.97,431.59 183.16,431.33 185.71,431.31 C191.62,431.24 191.88,431.10 191.69,428.26 C191.52,425.79 191.96,425.40 196.00,424.38 C198.48,423.76 200.39,422.74 200.25,422.13 C200.10,421.46 201.42,421.00 203.50,421.00 C205.43,421.00 207.00,420.55 207.00,420.00 C207.00,419.45 207.90,419.00 209.00,419.00 C210.10,419.00 211.00,418.57 211.00,418.03 C211.00,417.42 244.65,416.97 302.75,416.78 L 394.50 416.50 L 401.73 413.82 C419.00,407.41 431.96,394.55 438.11,377.72 C440.71,370.61 440.69,371.10 441.40,254.50 C441.61,219.30 441.85,189.82 441.93,189.00 C442.01,188.18 442.03,185.31 441.98,182.64 C441.88,177.46 442.06,176.96 444.16,176.65 C444.90,176.54 446.06,176.09 446.75,175.66 C447.44,175.23 448.56,175.22 449.25,175.63 C450.19,176.20 450.23,176.03 449.42,174.94 C448.83,174.15 448.43,172.04 448.53,170.25 C448.68,167.65 448.33,167.00 446.80,167.00 C445.74,167.00 445.14,166.58 445.46,166.07 C445.77,165.56 445.58,164.86 445.02,164.51 C444.46,164.16 444.00,163.37 444.00,162.74 C444.00,161.92 444.34,161.94 445.20,162.80 C446.80,164.40 449.33,164.36 448.40,162.75 C447.99,162.04 448.06,161.85 448.58,162.32 C449.07,162.77 449.48,163.85 449.49,164.71 C449.49,165.57 450.25,166.75 451.17,167.33 C453.51,168.81 456.00,166.52 456.00,162.88 C456.00,160.39 456.38,160.00 458.80,160.00 C462.35,160.00 464.00,158.35 464.00,154.80 C464.00,152.40 464.40,152.00 466.80,152.00 C470.35,152.00 472.00,150.35 472.00,146.80 C472.00,144.40 472.40,144.00 474.80,144.00 C478.35,144.00 480.00,142.35 480.00,138.80 C480.00,136.40 480.40,136.00 482.80,136.00 C486.35,136.00 488.00,134.35 488.00,130.80 C488.00,128.48 488.43,128.00 490.50,128.00 C491.88,128.00 493.00,127.55 493.00,127.00 C493.00,126.45 493.90,126.00 495.00,126.00 C497.32,126.00 497.65,123.78 495.58,122.07 C494.46,121.14 494.09,121.26 493.78,122.70 C493.56,123.69 493.42,122.03 493.46,119.00 C493.53,113.70 493.79,113.32 496.88,113.85 C497.74,114.00 499.32,117.77 499.12,119.22 C499.06,119.62 499.92,120.42 501.01,121.01 C502.10,121.59 503.00,122.91 503.00,123.93 C503.00,124.95 503.60,126.02 504.33,126.30 C505.07,126.58 505.67,126.20 505.67,125.45 C505.67,124.70 505.29,124.32 504.83,124.60 C504.38,124.89 504.03,123.85 504.07,122.31 C504.13,119.84 504.24,119.74 505.00,121.50 C505.76,123.26 505.87,123.16 505.93,120.69 C505.97,119.06 505.58,118.14 505.00,118.50 C504.44,118.85 504.00,118.03 504.00,116.62 C504.00,115.24 503.50,113.81 502.89,113.43 C502.11,112.95 502.16,112.52 503.05,111.97 C503.75,111.54 505.04,111.63 505.91,112.17 C507.23,113.00 507.44,114.85 507.16,123.06 C506.88,130.92 507.13,133.27 508.34,134.48 C509.17,135.32 510.34,136.00 510.93,136.00 C511.68,136.00 512.00,115.69 512.00,68.00 ZM 342.37 378.98 L 337.61 382.00 L 288.80 382.00 C261.96,382.00 240.00,381.75 240.00,381.45 C240.00,381.15 241.59,380.23 243.54,379.42 C245.49,378.61 246.81,377.50 246.48,376.97 C246.15,376.44 247.06,376.00 248.50,376.00 C249.99,376.00 250.85,375.57 250.50,375.00 C250.15,374.43 250.99,374.00 252.44,374.00 C253.95,374.00 255.00,373.43 255.00,372.62 C255.00,371.69 253.22,371.01 249.67,370.56 C246.01,370.11 244.33,369.45 244.33,368.46 C244.33,366.69 247.33,365.65 250.00,366.50 C253.53,367.62 256.00,366.15 256.00,362.93 C256.00,360.39 256.37,360.00 258.80,360.00 C260.34,360.00 262.14,359.46 262.80,358.80 C263.46,358.14 264.00,356.34 264.00,354.80 C264.00,352.40 264.40,352.00 266.80,352.00 C268.34,352.00 270.14,351.46 270.80,350.80 C271.46,350.14 272.00,348.34 272.00,346.80 C272.00,344.40 272.40,344.00 274.80,344.00 C276.34,344.00 278.14,343.46 278.80,342.80 C279.46,342.14 280.00,340.34 280.00,338.80 C280.00,336.40 280.40,336.00 282.80,336.00 C284.34,336.00 286.14,335.46 286.80,334.80 C287.46,334.14 288.00,332.34 288.00,330.80 C288.00,328.40 288.40,328.00 290.80,328.00 C292.34,328.00 294.14,327.46 294.80,326.80 C295.46,326.14 296.00,324.34 296.00,322.80 C296.00,320.40 296.40,320.00 298.80,320.00 C302.34,320.00 304.00,318.36 304.00,314.86 C304.00,312.53 304.46,312.08 307.15,311.81 C311.16,311.41 313.18,308.60 310.76,306.78 C308.87,305.35 307.14,297.00 308.73,297.00 C309.28,297.00 311.42,298.61 313.51,300.57 C315.59,302.54 317.57,303.76 317.90,303.29 C318.69,302.16 320.02,302.30 322.69,303.79 C323.89,304.46 325.12,304.62 325.41,304.14 C326.45,302.47 330.45,303.51 331.56,305.74 C332.18,306.98 333.05,307.65 333.50,307.24 C333.95,306.83 333.96,307.12 333.52,307.89 C333.00,308.78 333.42,309.84 334.71,310.89 C337.32,312.99 351.48,356.82 351.39,362.50 C351.27,369.18 347.79,375.54 342.37,378.98 ZM 387.34 509.93 L 376.50 511.84 L 512.00 512.00 L 511.84 376.50 L 510.03 386.78 C498.94,449.79 450.02,498.90 387.34,509.93 ZM 325.78 301.37 C325.23,301.02 324.46,301.25 324.08,301.87 C323.04,303.56 321.13,301.24 321.71,298.98 C322.36,296.51 325.03,295.60 326.71,297.29 C328.21,298.78 327.39,302.36 325.78,301.37 ZM 304.85 307.12 C303.28,308.11 303.13,308.11 300.57,307.10 C297.79,306.02 300.26,304.78 303.55,305.60 C305.50,306.09 305.84,306.49 304.85,307.12 ZM 503.97 110.25 C504.03,111.65 502.22,111.01 501.61,109.42 C500.51,106.57 500.97,105.58 502.47,107.56 C503.28,108.63 503.95,109.84 503.97,110.25 Z" fill="rgb(41,131,217)"/>
<path d="M 511.00 133.11 C511.00,133.95 511.06,134.71 511.16,135.24 C511.09,135.75 511.01,136.00 510.93,136.00 C510.34,136.00 509.17,135.32 508.34,134.48 C507.13,133.27 506.88,130.92 507.16,123.06 C507.44,114.85 507.23,113.00 505.91,112.17 C505.04,111.63 503.75,111.54 503.05,111.97 C502.16,112.52 502.11,112.95 502.89,113.43 C503.50,113.81 504.00,115.24 504.00,116.62 C504.00,118.03 504.44,118.85 505.00,118.50 C505.58,118.14 505.97,119.06 505.93,120.69 C505.87,123.16 505.76,123.26 505.00,121.50 C504.24,119.74 504.13,119.84 504.07,122.31 C504.03,123.85 504.38,124.89 504.83,124.60 C505.29,124.32 505.67,124.70 505.67,125.45 C505.67,126.20 505.07,126.58 504.33,126.30 C503.60,126.02 503.00,124.95 503.00,123.93 C503.00,122.91 502.10,121.59 501.01,121.01 C499.92,120.42 499.06,119.62 499.12,119.22 C499.32,117.77 497.74,114.00 496.88,113.85 C493.79,113.32 493.53,113.70 493.46,119.00 C493.42,122.03 493.56,123.69 493.78,122.70 C494.09,121.26 494.46,121.14 495.58,122.07 C497.65,123.78 497.32,126.00 495.00,126.00 C493.90,126.00 493.00,126.45 493.00,127.00 C493.00,127.55 491.88,128.00 490.50,128.00 C488.43,128.00 488.00,128.48 488.00,130.80 C488.00,134.35 486.35,136.00 482.80,136.00 C480.40,136.00 480.00,136.40 480.00,138.80 C480.00,142.35 478.35,144.00 474.80,144.00 C472.40,144.00 472.00,144.40 472.00,146.80 C472.00,150.35 470.35,152.00 466.80,152.00 C464.40,152.00 464.00,152.40 464.00,154.80 C464.00,158.35 462.35,160.00 458.80,160.00 C456.38,160.00 456.00,160.39 456.00,162.88 C456.00,166.52 453.51,168.81 451.17,167.33 C450.25,166.75 449.49,165.57 449.49,164.71 C449.48,163.85 449.07,162.77 448.58,162.32 C448.06,161.85 447.99,162.04 448.40,162.75 C449.33,164.36 446.80,164.40 445.20,162.80 C444.34,161.94 444.00,161.92 444.00,162.74 C444.00,163.37 444.46,164.16 445.02,164.51 C445.58,164.86 445.77,165.56 445.46,166.07 C445.14,166.58 445.74,167.00 446.80,167.00 C448.33,167.00 448.68,167.65 448.53,170.25 C448.43,172.04 448.83,174.15 449.42,174.94 C450.23,176.03 450.19,176.20 449.25,175.63 C448.56,175.22 447.44,175.23 446.75,175.66 C446.06,176.09 444.90,176.54 444.16,176.65 C442.06,176.96 441.88,177.46 441.98,182.64 C442.03,185.31 442.01,188.18 441.93,189.00 C441.85,189.82 441.61,219.30 441.40,254.50 C441.07,308.45 440.90,337.33 440.55,353.50 L 440.80 283.00 C441.12,189.45 441.05,187.70 436.47,177.35 C435.17,174.41 434.34,172.00 434.63,172.00 C434.91,172.00 434.43,171.29 433.57,170.43 C432.70,169.56 430.63,166.87 428.97,164.46 C423.50,156.50 410.70,147.58 399.50,143.92 C396.46,142.93 380.52,142.48 333.00,142.06 C327.24,142.00 321.98,141.97 317.16,141.93 C278.28,141.64 268.21,141.57 261.20,136.90 C257.88,134.68 255.25,131.44 250.57,126.65 C239.54,115.36 234.53,109.82 237.25,111.90 C240.44,114.35 239.12,111.22 235.47,107.67 C232.46,104.75 232.19,104.14 233.65,103.58 C234.67,103.19 235.99,103.60 236.93,104.60 C237.79,105.53 237.94,105.97 237.25,105.58 C236.56,105.20 236.00,105.30 236.00,105.82 C236.00,107.32 238.81,109.23 239.96,108.52 C240.54,108.17 241.28,108.58 241.61,109.44 C242.46,111.64 243.55,111.38 243.73,108.92 C243.94,106.16 245.67,104.19 248.22,103.81 C249.36,103.64 250.68,102.71 251.15,101.75 C251.62,100.79 252.38,99.22 252.84,98.27 C253.31,97.32 254.73,96.30 256.00,96.00 C257.27,95.70 258.62,94.79 259.00,93.98 C261.10,89.45 261.90,88.50 264.00,88.00 C265.27,87.70 266.69,86.68 267.16,85.73 L 268.84 82.27 C269.31,81.32 270.73,80.30 272.00,80.00 C274.10,79.50 274.90,78.55 277.00,74.02 C277.38,73.21 278.73,72.30 280.00,72.00 C281.27,71.70 282.62,70.79 283.00,69.98 C285.10,65.45 285.90,64.50 288.00,64.00 C289.27,63.70 290.69,62.68 291.16,61.73 L 292.84 58.27 C293.31,57.32 294.73,56.30 296.00,56.00 C297.27,55.70 298.69,54.68 299.16,53.73 L 300.84 50.27 C301.31,49.32 302.73,48.30 304.00,48.00 C306.10,47.50 306.90,46.55 309.00,42.02 C309.38,41.21 310.73,40.30 312.00,40.00 C314.10,39.50 314.90,38.55 317.00,34.02 C317.38,33.21 318.73,32.30 320.00,32.00 C322.10,31.50 322.90,30.55 325.00,26.02 C325.38,25.21 326.73,24.30 328.00,24.00 C330.10,23.50 330.90,22.55 333.00,18.02 C333.38,17.21 334.73,16.30 336.00,16.00 C337.27,15.70 338.62,14.79 339.00,13.98 C341.09,9.48 341.89,8.47 343.61,8.14 C346.65,7.57 348.00,5.95 348.00,2.88 L 348.00 0.00 L 438.46 0.00 C376.13,0.00 365.12,0.21 366.20,1.37 C367.16,2.40 369.51,2.63 375.49,2.28 C389.70,1.44 410.77,6.84 429.48,16.10 C463.57,32.99 491.89,65.56 503.96,101.74 C507.24,111.58 511.00,128.33 511.00,133.11 ZM 117.73 415.48 C123.26,416.59 149.18,416.81 259.50,416.67 L 394.50 416.50 L 302.75 416.78 C244.65,416.97 211.00,417.42 211.00,418.03 C211.00,418.57 210.10,419.00 209.00,419.00 C207.90,419.00 207.00,419.45 207.00,420.00 C207.00,420.55 205.43,421.00 203.50,421.00 C201.42,421.00 200.10,421.46 200.25,422.13 C200.39,422.74 198.48,423.76 196.00,424.38 C191.96,425.40 191.52,425.79 191.69,428.26 C191.88,431.10 191.62,431.24 185.71,431.31 C183.16,431.33 182.97,431.59 183.55,434.21 C184.35,437.86 182.62,440.00 178.88,440.00 C176.39,440.00 176.00,440.38 176.00,442.80 C176.00,446.35 174.35,448.00 170.80,448.00 C168.40,448.00 168.00,448.40 168.00,450.80 C168.00,454.35 166.35,456.00 162.80,456.00 C160.40,456.00 160.00,456.40 160.00,458.80 C160.00,462.35 158.35,464.00 154.80,464.00 C152.40,464.00 152.00,464.40 152.00,466.80 C152.00,470.35 150.35,472.00 146.80,472.00 C144.40,472.00 144.00,472.40 144.00,474.80 C144.00,478.35 142.35,480.00 138.80,480.00 C136.40,480.00 136.00,480.40 136.00,482.80 C136.00,486.35 134.35,488.00 130.80,488.00 C128.48,488.00 128.00,488.43 128.00,490.50 C128.00,491.88 127.56,493.00 127.03,493.00 C126.50,493.00 126.30,493.62 126.59,494.37 C127.25,496.09 124.79,497.12 122.91,495.91 C121.71,495.13 121.72,494.84 123.00,493.92 C124.14,493.10 123.57,492.96 120.63,493.37 C118.50,493.67 116.51,494.16 116.21,494.45 C115.33,495.34 117.93,500.16 118.95,499.53 C119.47,499.21 120.37,499.83 120.95,500.90 C121.52,501.98 123.01,503.08 124.25,503.34 C125.70,503.65 125.25,503.82 123.00,503.81 C116.59,503.79 112.49,504.15 113.69,504.64 C114.35,504.91 114.67,505.70 114.40,506.40 C114.05,507.30 114.77,507.54 116.89,507.23 C118.52,506.99 119.74,506.28 119.59,505.65 C119.45,505.02 119.52,504.84 119.75,505.26 C119.98,505.67 120.58,505.76 121.07,505.45 C121.57,505.15 121.76,505.48 121.48,506.20 C121.12,507.17 122.45,507.52 126.71,507.59 C130.34,507.65 131.72,507.40 130.47,506.91 C128.95,506.32 129.30,506.13 132.00,506.09 C134.61,506.04 135.12,506.28 134.00,507.00 C132.81,507.77 133.01,507.99 135.00,508.05 C137.30,508.13 137.34,508.21 135.50,509.00 C133.82,509.72 134.03,509.87 136.75,509.93 C138.54,509.97 140.00,510.45 140.00,511.00 C140.00,511.66 116.00,512.00 70.00,512.00 L 0.00 512.00 L 68.75 511.85 C106.56,511.77 136.15,511.53 134.50,511.31 C126.19,510.24 110.91,506.70 102.74,503.97 C69.65,492.88 43.89,472.66 23.79,442.00 C15.19,428.90 5.00,404.66 5.00,397.33 C5.00,395.98 4.58,394.08 4.06,393.11 C3.54,392.14 2.90,388.46 2.62,384.93 C2.35,381.39 1.83,377.50 1.46,376.28 C1.09,375.06 1.25,372.73 1.82,371.09 C2.62,368.78 2.54,367.86 1.43,366.94 C0.19,365.92 0.00,375.67 0.00,438.88 L 0.00 176.08 C0.00,352.87 0.06,356.11 3.18,349.69 C3.63,348.76 4.38,347.22 4.84,346.27 C5.31,345.32 6.73,344.30 8.00,344.00 C9.27,343.70 10.69,342.68 11.16,341.73 L 12.84 338.27 C13.31,337.32 14.73,336.30 16.00,336.00 C17.27,335.70 18.69,334.68 19.16,333.73 L 20.84 330.27 C21.31,329.32 22.73,328.30 24.00,328.00 C25.27,327.70 26.69,326.68 27.16,325.73 L 28.84 322.27 C29.31,321.32 30.73,320.30 32.00,320.00 C33.27,319.70 34.69,318.68 35.16,317.73 L 36.84 314.27 C37.31,313.32 38.73,312.30 40.00,312.00 C42.10,311.50 42.90,310.55 45.00,306.02 C45.38,305.21 46.73,304.30 48.00,304.00 C49.27,303.70 50.69,302.68 51.16,301.73 L 52.84 298.27 C53.31,297.32 54.73,296.30 56.00,296.00 C58.54,295.40 59.58,293.94 60.47,289.71 C60.79,288.17 61.48,287.18 62.00,287.50 C62.52,287.82 63.21,286.83 63.53,285.29 C63.85,283.76 64.46,281.85 64.88,281.06 C65.96,279.02 68.00,278.55 68.00,280.33 C68.00,281.16 68.52,282.01 69.15,282.22 C69.99,282.50 70.41,293.60 70.70,322.55 C70.91,344.52 71.54,365.42 72.10,369.00 C75.53,391.03 95.06,410.93 117.73,415.48 ZM 351.02 359.75 C348.78,348.51 337.06,312.78 334.71,310.89 C333.42,309.84 333.00,308.78 333.52,307.89 C333.96,307.12 333.95,306.83 333.50,307.24 C333.05,307.65 332.18,306.98 331.56,305.74 C330.45,303.51 326.45,302.47 325.41,304.14 C325.12,304.62 323.89,304.46 322.69,303.79 C320.02,302.30 318.69,302.16 317.90,303.29 C317.57,303.76 315.59,302.54 313.51,300.57 C311.42,298.61 309.28,297.00 308.73,297.00 C307.14,297.00 308.87,305.35 310.76,306.78 C313.18,308.60 311.16,311.41 307.15,311.81 C304.46,312.08 304.00,312.53 304.00,314.86 C304.00,318.36 302.34,320.00 298.80,320.00 C296.40,320.00 296.00,320.40 296.00,322.80 C296.00,324.34 295.46,326.14 294.80,326.80 C294.14,327.46 292.34,328.00 290.80,328.00 C288.40,328.00 288.00,328.40 288.00,330.80 C288.00,332.34 287.46,334.14 286.80,334.80 C286.14,335.46 284.34,336.00 282.80,336.00 C280.40,336.00 280.00,336.40 280.00,338.80 C280.00,340.34 279.46,342.14 278.80,342.80 C278.14,343.46 276.34,344.00 274.80,344.00 C272.40,344.00 272.00,344.40 272.00,346.80 C272.00,348.34 271.46,350.14 270.80,350.80 C270.14,351.46 268.34,352.00 266.80,352.00 C264.40,352.00 264.00,352.40 264.00,354.80 C264.00,356.34 263.46,358.14 262.80,358.80 C262.14,359.46 260.34,360.00 258.80,360.00 C256.37,360.00 256.00,360.39 256.00,362.93 C256.00,366.15 253.53,367.62 250.00,366.50 C247.33,365.65 244.33,366.69 244.33,368.46 C244.33,369.45 246.01,370.11 249.67,370.56 C253.22,371.01 255.00,371.69 255.00,372.62 C255.00,373.43 253.95,374.00 252.44,374.00 C250.99,374.00 250.15,374.43 250.50,375.00 C250.85,375.57 249.99,376.00 248.50,376.00 C247.06,376.00 246.15,376.44 246.48,376.97 C246.81,377.50 245.49,378.61 243.54,379.42 C241.59,380.23 240.00,381.15 240.00,381.45 C240.00,381.71 256.66,381.94 278.70,381.99 L 256.55 381.98 L 175.50 381.97 L 171.60 379.73 C165.32,376.15 161.74,370.93 161.22,364.62 C160.97,361.65 161.24,357.71 161.82,355.86 C168.38,334.82 177.20,308.54 178.97,304.78 C181.50,299.41 186.92,294.11 193.20,290.88 C200.08,287.34 210.40,287.18 221.50,290.42 C246.07,297.60 265.74,297.75 289.36,290.94 C309.37,285.16 321.99,288.10 330.97,300.61 C334.77,305.90 348.84,347.94 351.02,359.75 ZM 266.20 275.88 C244.62,280.44 221.46,269.02 211.69,249.00 C202.08,229.30 205.38,207.66 220.29,192.65 C230.88,182.00 242.44,177.00 256.50,177.00 C270.47,177.00 281.62,181.61 291.53,191.49 C301.19,201.12 305.93,212.62 305.98,226.54 C306.02,240.70 301.31,251.90 290.93,262.27 C283.64,269.56 275.89,273.83 266.20,275.88 ZM 325.78 301.37 C327.39,302.36 328.21,298.78 326.71,297.29 C325.03,295.60 322.36,296.51 321.71,298.98 C321.13,301.24 323.04,303.56 324.08,301.87 C324.46,301.25 325.23,301.02 325.78,301.37 ZM 304.85 307.12 C305.84,306.49 305.50,306.09 303.55,305.60 C300.26,304.78 297.79,306.02 300.57,307.10 C303.13,308.11 303.28,308.11 304.85,307.12 ZM 503.97 110.25 C503.95,109.84 503.28,108.63 502.47,107.56 C500.97,105.58 500.51,106.57 501.61,109.42 C502.22,111.01 504.03,111.65 503.97,110.25 ZM 241.31 115.44 C242.85,116.85 244.37,118.00 244.68,118.00 C245.76,118.00 242.66,114.89 240.58,113.89 C239.07,113.15 239.26,113.58 241.31,115.44 ZM 342.37 378.98 C345.53,376.97 348.04,373.97 349.59,370.50 C348.07,373.97 345.59,376.94 342.37,378.98 Z" fill="rgb(65,151,228)"/>
<path d="M 0.00 0.00 L 348.00 0.00 L 348.00 2.88 C348.00,5.95 346.65,7.57 343.61,8.14 C341.89,8.47 341.09,9.48 339.00,13.98 C338.62,14.79 337.27,15.70 336.00,16.00 C334.73,16.30 333.38,17.21 333.00,18.02 C330.90,22.55 330.10,23.50 328.00,24.00 C326.73,24.30 325.38,25.21 325.00,26.02 C322.90,30.55 322.10,31.50 320.00,32.00 C318.73,32.30 317.38,33.21 317.00,34.02 C314.90,38.55 314.10,39.50 312.00,40.00 C310.73,40.30 309.38,41.21 309.00,42.02 C306.90,46.55 306.10,47.50 304.00,48.00 C302.73,48.30 301.31,49.32 300.84,50.27 L 299.16 53.73 C298.69,54.68 297.27,55.70 296.00,56.00 C294.73,56.30 293.31,57.32 292.84,58.27 L 291.16 61.73 C290.69,62.68 289.27,63.70 288.00,64.00 C285.90,64.50 285.10,65.45 283.00,69.98 C282.62,70.79 281.27,71.70 280.00,72.00 C278.73,72.30 277.38,73.21 277.00,74.02 C274.90,78.55 274.10,79.50 272.00,80.00 C270.73,80.30 269.31,81.32 268.84,82.27 L 267.16 85.73 C266.69,86.68 265.27,87.70 264.00,88.00 C261.90,88.50 261.10,89.45 259.00,93.98 C258.62,94.79 257.27,95.70 256.00,96.00 C254.73,96.30 253.31,97.32 252.84,98.27 C252.38,99.22 251.62,100.79 251.15,101.75 C250.68,102.71 249.36,103.64 248.22,103.81 C245.67,104.19 243.94,106.16 243.73,108.92 C243.55,111.38 242.46,111.64 241.61,109.44 C241.28,108.58 240.54,108.17 239.96,108.52 C238.81,109.23 236.00,107.32 236.00,105.82 C236.00,105.30 236.56,105.20 237.25,105.58 C237.94,105.97 237.79,105.53 236.93,104.60 C235.99,103.60 234.67,103.19 233.65,103.58 C232.19,104.14 232.46,104.75 235.47,107.67 C239.12,111.22 240.44,114.35 237.25,111.90 C234.53,109.82 239.54,115.36 250.57,126.65 C254.90,131.08 257.47,134.18 260.46,136.38 C254.39,132.80 249.33,126.84 239.18,116.85 C224.19,102.10 220.74,99.19 216.50,97.77 C212.16,96.31 205.52,96.06 166.00,95.86 L 165.75 95.86 C127.61,95.66 118.72,95.62 110.81,98.39 C108.38,99.24 106.05,100.35 103.00,101.80 C93.13,106.51 81.96,117.54 77.19,127.30 C76.33,129.05 75.59,130.51 74.96,132.00 C71.03,141.24 71.03,152.15 71.02,246.47 C71.02,249.42 71.02,252.45 71.02,255.57 C71.01,314.98 71.24,350.99 71.72,364.18 C71.28,356.02 70.86,339.61 70.70,322.55 C70.41,293.60 69.99,282.50 69.15,282.22 C68.52,282.01 68.00,281.16 68.00,280.33 C68.00,278.55 65.96,279.02 64.88,281.06 C64.46,281.85 63.85,283.76 63.53,285.29 C63.21,286.83 62.52,287.82 62.00,287.50 C61.48,287.18 60.79,288.17 60.47,289.71 C59.58,293.94 58.54,295.40 56.00,296.00 C54.73,296.30 53.31,297.32 52.84,298.27 L 51.16 301.73 C50.69,302.68 49.27,303.70 48.00,304.00 C46.73,304.30 45.38,305.21 45.00,306.02 C42.90,310.55 42.10,311.50 40.00,312.00 C38.73,312.30 37.31,313.32 36.84,314.27 L 35.16 317.73 C34.69,318.68 33.27,319.70 32.00,320.00 C30.73,320.30 29.31,321.32 28.84,322.27 L 27.16 325.73 C26.69,326.68 25.27,327.70 24.00,328.00 C22.73,328.30 21.31,329.32 20.84,330.27 L 19.16 333.73 C18.69,334.68 17.27,335.70 16.00,336.00 C14.73,336.30 13.31,337.32 12.84,338.27 L 11.16 341.73 C10.69,342.68 9.27,343.70 8.00,344.00 C6.73,344.30 5.31,345.32 4.84,346.27 C4.38,347.22 3.63,348.76 3.18,349.69 C0.06,356.11 0.00,352.87 0.00,176.08 ZM 0.00 0.00 L 0.12 68.25 C0.20,113.40 0.55,134.64 1.16,131.00 C7.36,93.80 20.71,67.22 45.16,43.40 C69.29,19.88 95.61,6.72 128.87,1.54 C136.58,0.34 130.17,0.18 68.75,0.10 ZM 438.46 0.00 L 512.00 0.00 L 443.75 0.13 C406.21,0.19 377.30,0.58 379.50,0.98 C384.74,1.94 389.40,2.86 393.63,3.79 C386.96,2.51 380.75,1.97 375.49,2.28 C369.51,2.63 367.16,2.40 366.20,1.37 C365.12,0.21 376.13,0.00 438.46,0.00 ZM 0.15 443.75 L 0.00 512.00 L 0.00 438.88 C0.00,375.67 0.19,365.92 1.43,366.94 C2.54,367.86 2.62,368.78 1.82,371.09 C1.25,372.73 1.09,375.06 1.46,376.28 C1.83,377.50 2.35,381.39 2.62,384.93 C2.64,385.17 2.66,385.41 2.68,385.66 C2.45,384.78 2.20,384.00 1.97,383.50 C1.48,382.40 0.90,380.15 0.69,378.50 C0.47,376.85 0.23,406.21 0.15,443.75 ZM 241.31 115.44 C239.26,113.58 239.07,113.15 240.58,113.89 C242.66,114.89 245.76,118.00 244.68,118.00 C244.37,118.00 242.85,116.85 241.31,115.44 ZM 72.74 372.32 C73.73,375.77 75.49,380.42 77.20,384.00 C78.40,386.50 79.79,388.90 81.35,391.20 C77.28,385.42 74.28,379.00 72.74,372.32 ZM 8.24 410.04 C11.94,420.26 18.20,433.48 23.79,442.00 C28.39,449.03 33.30,455.51 38.52,461.46 C28.33,450.01 19.81,437.09 13.75,423.50 C11.40,418.24 9.63,413.98 8.24,410.04 ZM 3.98 392.94 C4.01,393.00 4.03,393.06 4.06,393.11 C4.58,394.08 5.00,395.98 5.00,397.33 C5.00,397.87 5.06,398.51 5.16,399.24 C4.73,397.25 4.34,395.18 3.98,392.94 ZM 281.64 141.33 C289.71,141.73 300.92,141.81 317.16,141.93 C321.98,141.97 327.24,142.00 333.00,142.06 C308.12,141.83 292.44,141.98 281.64,141.33 ZM 112.41 506.76 C120.06,508.73 128.88,510.59 134.50,511.31 C127.63,510.42 120.00,508.83 112.41,506.76 ZM 70.70 488.96 C77.37,493.14 84.43,496.78 91.88,499.89 C89.66,498.99 87.53,498.06 85.51,497.12 C80.47,494.75 75.51,492.02 70.70,488.96 ZM 410.02 8.11 C416.82,10.29 422.84,12.82 429.48,16.10 C423.15,12.97 416.54,10.27 410.02,8.11 Z" fill="rgb(89,171,239)"/>
<path d="M 0.15 443.75 C0.23,406.21 0.47,376.85 0.69,378.50 C0.90,380.15 1.48,382.40 1.97,383.50 C2.47,384.60 3.10,387.08 3.38,389.00 C5.28,402.29 7.35,409.17 13.75,423.50 C27.78,454.93 54.95,482.80 85.51,497.12 C99.47,503.66 118.94,509.30 134.50,511.31 C136.15,511.53 106.56,511.77 68.75,511.85 L 0.00 512.00 L 0.15 443.75 ZM 387.34 509.93 C450.02,498.90 498.94,449.79 510.03,386.78 L 511.84 376.50 L 511.92 444.25 L 512.00 512.00 L 444.25 511.92 L 376.50 511.84 L 387.34 509.93 ZM 117.73 415.48 C100.36,411.99 84.82,399.92 77.20,384.00 C74.97,379.33 72.66,372.83 72.07,369.57 C71.35,365.59 71.01,327.96 71.02,255.57 C71.04,136.69 70.87,140.24 77.19,127.30 C81.96,117.54 93.13,106.51 103.00,101.80 C116.03,95.59 115.92,95.60 166.00,95.86 C205.52,96.06 212.16,96.31 216.50,97.77 C220.74,99.19 224.19,102.10 239.18,116.85 C266.93,144.15 256.61,141.38 333.00,142.06 C380.52,142.48 396.46,142.93 399.50,143.92 C410.70,147.58 423.50,156.50 428.97,164.46 C430.63,166.87 432.70,169.56 433.57,170.43 C434.43,171.29 434.91,172.00 434.63,172.00 C434.34,172.00 435.17,174.41 436.47,177.35 C441.05,187.70 441.12,189.45 440.80,283.00 L 440.49 371.50 L 438.16 377.72 C431.82,394.69 418.97,407.42 401.73,413.82 L 394.50 416.50 L 259.50 416.67 C149.18,416.81 123.26,416.59 117.73,415.48 ZM 342.37 378.98 C348.01,375.40 351.38,368.99 351.30,362.00 C351.21,355.06 335.08,306.33 330.97,300.61 C321.99,288.10 309.37,285.16 289.36,290.94 C265.74,297.75 246.07,297.60 221.50,290.42 C210.40,287.18 200.08,287.34 193.20,290.88 C186.92,294.11 181.50,299.41 178.97,304.78 C177.20,308.54 168.38,334.82 161.82,355.86 C161.24,357.71 160.97,361.65 161.22,364.62 C161.74,370.93 165.32,376.15 171.60,379.73 L 175.50 381.97 L 256.55 381.98 L 337.61 382.00 L 342.37 378.98 ZM 266.20 275.88 C275.89,273.83 283.64,269.56 290.93,262.27 C301.31,251.90 306.02,240.70 305.98,226.54 C305.93,212.62 301.19,201.12 291.53,191.49 C281.62,181.61 270.47,177.00 256.50,177.00 C242.44,177.00 230.88,182.00 220.29,192.65 C205.38,207.66 202.08,229.30 211.69,249.00 C221.46,269.02 244.62,280.44 266.20,275.88 ZM 0.12 68.25 L 0.00 0.00 L 68.75 0.10 C130.17,0.18 136.58,0.34 128.87,1.54 C95.61,6.72 69.29,19.88 45.16,43.40 C20.71,67.22 7.36,93.80 1.16,131.00 C0.55,134.64 0.20,113.40 0.12,68.25 ZM 511.00 133.11 C511.00,128.33 507.24,111.58 503.96,101.74 C491.89,65.56 463.57,32.99 429.48,16.10 C414.80,8.83 403.13,5.30 379.50,0.98 C377.30,0.58 406.21,0.19 443.75,0.13 L 512.00 0.00 L 512.00 68.00 C512.00,105.40 511.77,136.00 511.50,136.00 C511.23,136.00 511.00,134.70 511.00,133.11 Z" fill="rgb(253,254,254)"/>
</g>
</svg>